<svg xmlns="http://www.w3.org/2000/svg" width="228.167" height="99" viewBox="0 0 228.167 99"><path fill="#FFF" d="M123.705 1.298c-10.098 10.148-22.818 20.014-39.842 20.014L73.721 35.769l20.158-.025-14.725 20.967h-20.15L43.533 78.688H15.072L69.439 1.306l54.266-.008z"/><path fill="#E12826" d="M124.783 73.064l37.258 2.485-.137.199-48.568 2.94 15.818-22.512 44.526 2.748-.137.201-40.783 2.656-.172.201 37.219 2.481-.143.193-40.83 2.664-.117.207 37.179 2.465-.144.209-40.826 2.672zm87.436-68.959l-61.987 2.797-.132.185L208.5 9.4l-.135.182-61.986 2.798-.139.194 58.41 2.304-.142.202-62.008 2.814-.127.191 58.4 2.317-.142.199-61.981 2.779-.138.194 58.4 2.322-.137.182-62.002 2.826-.127.181 58.379 2.317-.111.185-62 2.803-.117.176 58.359 2.348-.109.168-62.02 2.798-.082.202 58.377 2.304-.131.194-61.986 2.789-.143.199 58.37 2.355-.133.184-61.957 2.758-.137.192 58.377 2.339-.143.19-69.861 3.141 38.945-55.429 65.831 2.606z"/><path fill="#FFF" d="M102.057 94.742h2.744l-2.307 3.283h-9.656l2.336-3.283h2.48l3.059-4.379h-2.988l1.992-2.764c2.332 0 3.621-.867 5.246-2.48h3.85l-6.756 9.623zm-30.67 3.283h-4.141l9.063-12.906h4.138zM60.92 94.291c-.658.945.732 1.65 1.785.148.324-.475 3.914-5.596 3.914-5.596h4.129s-3.502 4.971-4.439 6.291c-2.252 3.172-5.08 3.145-6.566 3.145-2.506 0-4.574-1.74-2.633-4.531.752-1.102 3.475-4.904 3.475-4.904h4.158c-.001 0-3.468 4.945-3.823 5.447m-48.168-5.84l-1.408 2.006h3.732l-2.379 3.408H8.969l-2.918 4.16H1.486l9.064-12.906h8.564c-2.233 2.692-3.485 3.332-6.362 3.332m13.283 5.053c-1.297 2.422-4.227 4.779-7.74 4.779-3.621 0-3.865-3.025-2.051-5.682 1.697-2.494 4.578-4.115 7.156-4.115 3.307 0 4.209 2.069 2.635 5.018m-3.691-2.279c-1.643-.441-4.783 3.902-2.906 4.127 1.634.193 4.72-3.651 2.906-4.127m12.533-1.061c4.148-2.98 5.17-.611 5.17-.611l-3.184 3.176c-1.355-1.779-3.504-.418-4.314.744a2068.6 2068.6 0 0 0-3.213 4.553h-4.113l6.426-9.18h4.1l-.872 1.318zm16.191-.133c3.404-2.641 7.082-.988 4.969 2.055l-4.174 5.938h-4.031l3.902-5.545c.678-.971-.992-1.236-1.859 0-.342.492-3.891 5.545-3.891 5.545h-4.039s3.551-5.086 3.875-5.545c.674-.971-.977-1.236-1.848 0-.344.492-3.896 5.545-3.896 5.545h-4.018l6.42-9.17h4.094l-.988 1.402c1.973-1.471 4.803-2.43 5.484-.225m30.241 5.373c-.928-.109-.979-1.049-.143-2.232.752-1.08 2.223-2.121 3.053-1.902 1.806.484-1.274 4.298-2.91 4.134m3.449-6.81c-3.604 0-6.535 2.641-7.68 5.195-1.135 2.531-.367 4.492 1.873 4.492 1.414 0 2.652-.867 3.086-1.158l-.652.928h3.697l6.43-9.164h-4.193l-.574.734c-.169-.469-.825-1.027-1.987-1.027m29.265-.024a1.95 1.95 0 0 1-1.402.557 1.965 1.965 0 0 1-1.428-.572 1.936 1.936 0 0 1-.574-1.422c0-.594.207-1.078.625-1.461a1.951 1.951 0 0 1 1.377-.553c.551 0 1.027.201 1.418.592.391.395.588.861.588 1.422 0 .568-.201 1.043-.604 1.437m-2.574-2.607a1.591 1.591 0 0 0-.477 1.16c0 .471.162.859.484 1.186.32.328.715.488 1.164.488.457 0 .844-.16 1.166-.488.322-.334.484-.727.484-1.186 0-.441-.162-.828-.482-1.16-.324-.334-.711-.502-1.168-.502s-.849.168-1.171.502m.297 2.273v-2.215h1.07c.178.016.322.051.438.117.199.105.295.283.295.525 0 .186-.051.318-.154.4a.726.726 0 0 1-.391.152c.143.023.25.074.32.125.135.109.195.275.195.498v.203c0 .025.004.041.004.066l.016.066.025.061h-.561a2.467 2.467 0 0 1-.037-.312.79.79 0 0 0-.037-.266c-.023-.084-.082-.133-.158-.166a.506.506 0 0 0-.197-.035l-.129-.006h-.121v.785h-.578zm1.051-1.789a1.114 1.114 0 0 0-.334-.041h-.139v.641h.223c.139 0 .242-.023.316-.082.076-.049.117-.143.117-.26 0-.123-.056-.207-.183-.258"/></svg>