<?xml version="1.0" encoding="utf-8"?>
<!-- Generator: Adobe Illustrator 16.0.4, SVG Export Plug-In . SVG Version: 6.00 Build 0)  -->
<!DOCTYPE svg PUBLIC "-//W3C//DTD SVG 1.1//EN" "http://www.w3.org/Graphics/SVG/1.1/DTD/svg11.dtd">
<svg version="1.1" id="Layer_1" xmlns="http://www.w3.org/2000/svg" xmlns:xlink="http://www.w3.org/1999/xlink" x="0px" y="0px"
	 width="228.167px" height="99px" viewBox="0 0 228.167 99" enable-background="new 0 0 228.167 99" xml:space="preserve">
<path fill="#FFFFFF" d="M123.705,1.298c-10.098,10.148-22.818,20.014-39.842,20.014L73.721,35.769l20.158-0.025L79.154,56.711
	h-20.15L43.533,78.688H15.072L69.439,1.306L123.705,1.298z"/>
<polygon fill="#E12826" points="124.783,73.064 162.041,75.549 161.904,75.748 113.336,78.688 129.154,56.176 173.68,58.924 
	173.543,59.125 132.76,61.781 132.588,61.982 169.807,64.463 169.664,64.656 128.834,67.32 128.717,67.527 165.896,69.992 
	165.752,70.201 124.926,72.873 "/>
<polygon fill="#E12826" points="212.219,4.105 150.232,6.902 150.1,7.087 208.5,9.4 208.365,9.582 146.379,12.38 146.24,12.574 
	204.65,14.878 204.508,15.08 142.5,17.894 142.373,18.085 200.773,20.402 200.631,20.601 138.65,23.38 138.512,23.574 
	196.912,25.896 196.775,26.078 134.773,28.904 134.646,29.085 193.025,31.402 192.914,31.587 130.914,34.39 130.797,34.566 
	189.156,36.914 189.047,37.082 127.027,39.88 126.945,40.082 185.322,42.386 185.191,42.58 123.205,45.369 123.062,45.568 
	181.432,47.923 181.299,48.107 119.342,50.865 119.205,51.057 177.582,53.396 177.439,53.586 107.578,56.727 146.523,1.298 
	212.354,3.904 "/>
<path fill="#FFFFFF" d="M102.057,94.742h2.744l-2.307,3.283h-9.656l2.336-3.283h2.48l3.059-4.379h-2.988l1.992-2.764
	c2.332,0,3.621-0.867,5.246-2.48h3.85L102.057,94.742z"/>
<polygon fill="#FFFFFF" points="71.387,98.025 67.246,98.025 76.309,85.119 80.447,85.119 "/>
<path fill="#FFFFFF" d="M60.92,94.291c-0.658,0.945,0.732,1.65,1.785,0.148c0.324-0.475,3.914-5.596,3.914-5.596h4.129
	c0,0-3.502,4.971-4.439,6.291c-2.252,3.172-5.08,3.145-6.566,3.145c-2.506,0-4.574-1.74-2.633-4.531
	c0.752-1.102,3.475-4.904,3.475-4.904h4.158C64.742,88.844,61.275,93.789,60.92,94.291"/>
<path fill="#FFFFFF" d="M12.752,88.451l-1.408,2.006h3.732l-2.379,3.408H8.969l-2.918,4.16H1.486l9.064-12.906h8.564
	C16.881,87.811,15.629,88.451,12.752,88.451"/>
<path fill="#FFFFFF" d="M26.035,93.504c-1.297,2.422-4.227,4.779-7.74,4.779c-3.621,0-3.865-3.025-2.051-5.682
	c1.697-2.494,4.578-4.115,7.156-4.115C26.707,88.486,27.609,90.555,26.035,93.504 M22.344,91.225
	c-1.643-0.441-4.783,3.902-2.906,4.127C21.072,95.545,24.158,91.701,22.344,91.225"/>
<path fill="#FFFFFF" d="M34.877,90.164c4.148-2.98,5.17-0.611,5.17-0.611l-3.184,3.176c-1.355-1.779-3.504-0.418-4.314,0.744
	c-0.33,0.459-3.213,4.553-3.213,4.553h-4.113l6.426-9.18h4.1L34.877,90.164z"/>
<path fill="#FFFFFF" d="M51.068,90.031c3.404-2.641,7.082-0.988,4.969,2.055c-0.492,0.701-4.174,5.938-4.174,5.938h-4.031
	c0,0,3.58-5.086,3.902-5.545c0.678-0.971-0.992-1.236-1.859,0c-0.342,0.492-3.891,5.545-3.891,5.545h-4.039
	c0,0,3.551-5.086,3.875-5.545c0.674-0.971-0.977-1.236-1.848,0c-0.344,0.492-3.896,5.545-3.896,5.545h-4.018l6.42-9.17h4.094
	l-0.988,1.402C47.557,88.785,50.387,87.826,51.068,90.031"/>
<path fill="#FFFFFF" d="M81.309,95.404c-0.928-0.109-0.979-1.049-0.143-2.232c0.752-1.08,2.223-2.121,3.053-1.902
	C86.025,91.754,82.945,95.568,81.309,95.404 M84.758,88.594c-3.604,0-6.535,2.641-7.68,5.195c-1.135,2.531-0.367,4.492,1.873,4.492
	c1.414,0,2.652-0.867,3.086-1.158l-0.652,0.928h3.697l6.43-9.164h-4.193l-0.574,0.734C86.576,89.152,85.92,88.594,84.758,88.594"/>
<path fill="#FFFFFF" d="M114.023,88.57c-0.391,0.375-0.859,0.557-1.402,0.557c-0.564,0-1.037-0.191-1.428-0.572
	c-0.385-0.387-0.574-0.861-0.574-1.422c0-0.594,0.207-1.078,0.625-1.461c0.393-0.369,0.854-0.553,1.377-0.553
	c0.551,0,1.027,0.201,1.418,0.592c0.391,0.395,0.588,0.861,0.588,1.422C114.627,87.701,114.426,88.176,114.023,88.57
	 M111.449,85.963c-0.324,0.326-0.477,0.719-0.477,1.16c0,0.471,0.162,0.859,0.484,1.186c0.32,0.328,0.715,0.488,1.164,0.488
	c0.457,0,0.844-0.16,1.166-0.488c0.322-0.334,0.484-0.727,0.484-1.186c0-0.441-0.162-0.828-0.482-1.16
	c-0.324-0.334-0.711-0.502-1.168-0.502S111.771,85.629,111.449,85.963 M111.746,88.236v-2.215h0.613h0.457
	c0.178,0.016,0.322,0.051,0.438,0.117c0.199,0.105,0.295,0.283,0.295,0.525c0,0.186-0.051,0.318-0.154,0.4
	c-0.104,0.084-0.232,0.135-0.391,0.152c0.143,0.023,0.25,0.074,0.32,0.125c0.135,0.109,0.195,0.275,0.195,0.498v0.203
	c0,0.025,0.004,0.041,0.004,0.066c0.006,0.025,0.01,0.043,0.016,0.066l0.025,0.061h-0.561c-0.014-0.068-0.027-0.168-0.037-0.312
	c-0.004-0.131-0.016-0.223-0.037-0.266c-0.023-0.084-0.082-0.133-0.158-0.166c-0.041-0.018-0.109-0.035-0.197-0.035l-0.129-0.006
	h-0.121v0.785H111.746z M112.797,86.447c-0.076-0.025-0.188-0.041-0.334-0.041h-0.139v0.641h0.223c0.139,0,0.242-0.023,0.316-0.082
	c0.076-0.049,0.117-0.143,0.117-0.26C112.98,86.582,112.924,86.498,112.797,86.447"/>
</svg>
